<mxfile host="Electron" modified="2023-09-13T06:12:05.140Z" agent="Mozilla/5.0 (Windows NT 10.0; Win64; x64) AppleWebKit/537.36 (KHTML, like Gecko) draw.io/21.6.5 Chrome/114.0.5735.243 Electron/25.3.1 Safari/537.36" etag="y1edVmLXHh8YrtK-rsFX" version="21.6.5" type="device">
  <diagram name="Page-1" id="QMQtmOHQ__CZ1WGLBrSu">
    <mxGraphModel dx="5279" dy="2470" grid="1" gridSize="10" guides="1" tooltips="1" connect="1" arrows="1" fold="1" page="1" pageScale="1" pageWidth="827" pageHeight="1169" background="#ffffff" math="0" shadow="0">
      <root>
        <mxCell id="0" />
        <mxCell id="1" parent="0" />
        <mxCell id="tDMJnzaZjNfrC3nhk8M8-130" style="edgeStyle=orthogonalEdgeStyle;rounded=0;orthogonalLoop=1;jettySize=auto;html=1;entryX=0.5;entryY=0;entryDx=0;entryDy=0;entryPerimeter=0;" parent="1" source="tDMJnzaZjNfrC3nhk8M8-129" target="tDMJnzaZjNfrC3nhk8M8-60" edge="1">
          <mxGeometry relative="1" as="geometry" />
        </mxCell>
        <mxCell id="tDMJnzaZjNfrC3nhk8M8-131" style="edgeStyle=orthogonalEdgeStyle;rounded=0;orthogonalLoop=1;jettySize=auto;html=1;entryX=0.5;entryY=0;entryDx=0;entryDy=0;entryPerimeter=0;" parent="1" source="tDMJnzaZjNfrC3nhk8M8-129" target="tDMJnzaZjNfrC3nhk8M8-61" edge="1">
          <mxGeometry relative="1" as="geometry" />
        </mxCell>
        <mxCell id="tDMJnzaZjNfrC3nhk8M8-129" value="" style="sketch=0;points=[[0,0,0],[0.25,0,0],[0.5,0,0],[0.75,0,0],[1,0,0],[0,1,0],[0.25,1,0],[0.5,1,0],[0.75,1,0],[1,1,0],[0,0.25,0],[0,0.5,0],[0,0.75,0],[1,0.25,0],[1,0.5,0],[1,0.75,0]];outlineConnect=0;fontColor=#232F3E;gradientColor=#945DF2;gradientDirection=north;fillColor=#5A30B5;strokeColor=#ffffff;dashed=0;verticalLabelPosition=bottom;verticalAlign=top;align=center;html=1;fontSize=12;fontStyle=0;aspect=fixed;shape=mxgraph.aws4.resourceIcon;resIcon=mxgraph.aws4.route_53;" parent="1" vertex="1">
          <mxGeometry x="20.5" y="-180" width="159" height="159" as="geometry" />
        </mxCell>
        <mxCell id="tDMJnzaZjNfrC3nhk8M8-138" style="edgeStyle=orthogonalEdgeStyle;rounded=0;orthogonalLoop=1;jettySize=auto;html=1;entryX=0.25;entryY=0;entryDx=0;entryDy=0;entryPerimeter=0;" parent="1" source="tDMJnzaZjNfrC3nhk8M8-132" target="tDMJnzaZjNfrC3nhk8M8-129" edge="1">
          <mxGeometry relative="1" as="geometry" />
        </mxCell>
        <mxCell id="tDMJnzaZjNfrC3nhk8M8-132" value="clientelle" style="sketch=0;outlineConnect=0;gradientColor=none;fontColor=#545B64;strokeColor=none;fillColor=#879196;dashed=0;verticalLabelPosition=bottom;verticalAlign=top;align=center;html=1;fontSize=12;fontStyle=0;aspect=fixed;shape=mxgraph.aws4.illustration_users;pointerEvents=1" parent="1" vertex="1">
          <mxGeometry x="-390" y="-320" width="80" height="80" as="geometry" />
        </mxCell>
        <mxCell id="tDMJnzaZjNfrC3nhk8M8-137" style="edgeStyle=orthogonalEdgeStyle;rounded=0;orthogonalLoop=1;jettySize=auto;html=1;entryX=0.75;entryY=0;entryDx=0;entryDy=0;entryPerimeter=0;" parent="1" source="tDMJnzaZjNfrC3nhk8M8-134" target="tDMJnzaZjNfrC3nhk8M8-129" edge="1">
          <mxGeometry relative="1" as="geometry" />
        </mxCell>
        <mxCell id="tDMJnzaZjNfrC3nhk8M8-134" value="clientelle" style="sketch=0;outlineConnect=0;gradientColor=none;fontColor=#545B64;strokeColor=none;fillColor=#879196;dashed=0;verticalLabelPosition=bottom;verticalAlign=top;align=center;html=1;fontSize=12;fontStyle=0;aspect=fixed;shape=mxgraph.aws4.illustration_users;pointerEvents=1" parent="1" vertex="1">
          <mxGeometry x="520" y="-320" width="80" height="80" as="geometry" />
        </mxCell>
        <mxCell id="tDMJnzaZjNfrC3nhk8M8-51" value="AWS Cloud" style="points=[[0,0],[0.25,0],[0.5,0],[0.75,0],[1,0],[1,0.25],[1,0.5],[1,0.75],[1,1],[0.75,1],[0.5,1],[0.25,1],[0,1],[0,0.75],[0,0.5],[0,0.25]];outlineConnect=0;gradientColor=none;html=1;whiteSpace=wrap;fontSize=12;fontStyle=0;container=1;pointerEvents=0;collapsible=0;recursiveResize=0;shape=mxgraph.aws4.group;grIcon=mxgraph.aws4.group_aws_cloud_alt;strokeColor=#232F3E;fillColor=none;verticalAlign=top;align=left;spacingLeft=30;fontColor=#232F3E;dashed=0;" parent="1" vertex="1">
          <mxGeometry x="-860" y="630" width="1920" height="1600" as="geometry" />
        </mxCell>
        <mxCell id="tDMJnzaZjNfrC3nhk8M8-52" value="Region" style="points=[[0,0],[0.25,0],[0.5,0],[0.75,0],[1,0],[1,0.25],[1,0.5],[1,0.75],[1,1],[0.75,1],[0.5,1],[0.25,1],[0,1],[0,0.75],[0,0.5],[0,0.25]];outlineConnect=0;gradientColor=none;html=1;whiteSpace=wrap;fontSize=12;fontStyle=0;container=1;pointerEvents=0;collapsible=0;recursiveResize=0;shape=mxgraph.aws4.group;grIcon=mxgraph.aws4.group_region;strokeColor=#147EBA;fillColor=none;verticalAlign=top;align=left;spacingLeft=30;fontColor=#147EBA;dashed=1;" parent="tDMJnzaZjNfrC3nhk8M8-51" vertex="1">
          <mxGeometry x="1000" y="40" width="880" height="960" as="geometry" />
        </mxCell>
        <mxCell id="tDMJnzaZjNfrC3nhk8M8-56" value="Availability Zone" style="fillColor=none;strokeColor=#147EBA;dashed=1;verticalAlign=top;fontStyle=0;fontColor=#147EBA;whiteSpace=wrap;html=1;" parent="tDMJnzaZjNfrC3nhk8M8-52" vertex="1">
          <mxGeometry x="40" y="40" width="360" height="880" as="geometry" />
        </mxCell>
        <mxCell id="tDMJnzaZjNfrC3nhk8M8-57" value="Availability Zone" style="fillColor=none;strokeColor=#147EBA;dashed=1;verticalAlign=top;fontStyle=0;fontColor=#147EBA;whiteSpace=wrap;html=1;" parent="tDMJnzaZjNfrC3nhk8M8-52" vertex="1">
          <mxGeometry x="480" y="40" width="360" height="880" as="geometry" />
        </mxCell>
        <mxCell id="tDMJnzaZjNfrC3nhk8M8-59" value="VPC" style="points=[[0,0],[0.25,0],[0.5,0],[0.75,0],[1,0],[1,0.25],[1,0.5],[1,0.75],[1,1],[0.75,1],[0.5,1],[0.25,1],[0,1],[0,0.75],[0,0.5],[0,0.25]];outlineConnect=0;gradientColor=none;html=1;whiteSpace=wrap;fontSize=12;fontStyle=0;container=1;pointerEvents=0;collapsible=0;recursiveResize=0;shape=mxgraph.aws4.group;grIcon=mxgraph.aws4.group_vpc;strokeColor=#248814;fillColor=none;verticalAlign=top;align=left;spacingLeft=30;fontColor=#AAB7B8;dashed=0;" parent="tDMJnzaZjNfrC3nhk8M8-52" vertex="1">
          <mxGeometry x="80" y="80" width="720" height="800" as="geometry" />
        </mxCell>
        <mxCell id="tDMJnzaZjNfrC3nhk8M8-61" value="elastic loadbalancer" style="sketch=0;points=[[0,0,0],[0.25,0,0],[0.5,0,0],[0.75,0,0],[1,0,0],[0,1,0],[0.25,1,0],[0.5,1,0],[0.75,1,0],[1,1,0],[0,0.25,0],[0,0.5,0],[0,0.75,0],[1,0.25,0],[1,0.5,0],[1,0.75,0]];outlineConnect=0;fontColor=#232F3E;gradientColor=#945DF2;gradientDirection=north;fillColor=#5A30B5;strokeColor=#ffffff;dashed=0;verticalLabelPosition=bottom;verticalAlign=top;align=center;html=1;fontSize=12;fontStyle=0;aspect=fixed;shape=mxgraph.aws4.resourceIcon;resIcon=mxgraph.aws4.elastic_load_balancing;" parent="tDMJnzaZjNfrC3nhk8M8-59" vertex="1">
          <mxGeometry x="332.5" y="-10" width="55" height="55" as="geometry" />
        </mxCell>
        <mxCell id="tDMJnzaZjNfrC3nhk8M8-76" value="Auto Scaling group" style="points=[[0,0],[0.25,0],[0.5,0],[0.75,0],[1,0],[1,0.25],[1,0.5],[1,0.75],[1,1],[0.75,1],[0.5,1],[0.25,1],[0,1],[0,0.75],[0,0.5],[0,0.25]];outlineConnect=0;gradientColor=none;html=1;whiteSpace=wrap;fontSize=12;fontStyle=0;container=1;pointerEvents=0;collapsible=0;recursiveResize=0;shape=mxgraph.aws4.groupCenter;grIcon=mxgraph.aws4.group_auto_scaling_group;grStroke=1;strokeColor=#D86613;fillColor=none;verticalAlign=top;align=center;fontColor=#D86613;dashed=1;spacingTop=25;" parent="tDMJnzaZjNfrC3nhk8M8-59" vertex="1">
          <mxGeometry x="40" y="80" width="640" height="160" as="geometry" />
        </mxCell>
        <mxCell id="tDMJnzaZjNfrC3nhk8M8-77" value="" style="sketch=0;points=[[0,0,0],[0.25,0,0],[0.5,0,0],[0.75,0,0],[1,0,0],[0,1,0],[0.25,1,0],[0.5,1,0],[0.75,1,0],[1,1,0],[0,0.25,0],[0,0.5,0],[0,0.75,0],[1,0.25,0],[1,0.5,0],[1,0.75,0]];outlineConnect=0;fontColor=#232F3E;gradientColor=#F78E04;gradientDirection=north;fillColor=#D05C17;strokeColor=#ffffff;dashed=0;verticalLabelPosition=bottom;verticalAlign=top;align=center;html=1;fontSize=12;fontStyle=0;aspect=fixed;shape=mxgraph.aws4.resourceIcon;resIcon=mxgraph.aws4.ec2;" parent="tDMJnzaZjNfrC3nhk8M8-76" vertex="1">
          <mxGeometry x="40" y="41" width="78" height="78" as="geometry" />
        </mxCell>
        <mxCell id="tDMJnzaZjNfrC3nhk8M8-78" value="" style="sketch=0;points=[[0,0,0],[0.25,0,0],[0.5,0,0],[0.75,0,0],[1,0,0],[0,1,0],[0.25,1,0],[0.5,1,0],[0.75,1,0],[1,1,0],[0,0.25,0],[0,0.5,0],[0,0.75,0],[1,0.25,0],[1,0.5,0],[1,0.75,0]];outlineConnect=0;fontColor=#232F3E;gradientColor=#F78E04;gradientDirection=north;fillColor=#D05C17;strokeColor=#ffffff;dashed=0;verticalLabelPosition=bottom;verticalAlign=top;align=center;html=1;fontSize=12;fontStyle=0;aspect=fixed;shape=mxgraph.aws4.resourceIcon;resIcon=mxgraph.aws4.ec2;" parent="tDMJnzaZjNfrC3nhk8M8-76" vertex="1">
          <mxGeometry x="520" y="41" width="78" height="78" as="geometry" />
        </mxCell>
        <mxCell id="tDMJnzaZjNfrC3nhk8M8-79" value="Auto Scaling group" style="points=[[0,0],[0.25,0],[0.5,0],[0.75,0],[1,0],[1,0.25],[1,0.5],[1,0.75],[1,1],[0.75,1],[0.5,1],[0.25,1],[0,1],[0,0.75],[0,0.5],[0,0.25]];outlineConnect=0;gradientColor=none;html=1;whiteSpace=wrap;fontSize=12;fontStyle=0;container=1;pointerEvents=0;collapsible=0;recursiveResize=0;shape=mxgraph.aws4.groupCenter;grIcon=mxgraph.aws4.group_auto_scaling_group;grStroke=1;strokeColor=#D86613;fillColor=none;verticalAlign=top;align=center;fontColor=#D86613;dashed=1;spacingTop=25;" parent="tDMJnzaZjNfrC3nhk8M8-59" vertex="1">
          <mxGeometry x="40" y="360" width="640" height="160" as="geometry" />
        </mxCell>
        <mxCell id="tDMJnzaZjNfrC3nhk8M8-80" value="" style="sketch=0;points=[[0,0,0],[0.25,0,0],[0.5,0,0],[0.75,0,0],[1,0,0],[0,1,0],[0.25,1,0],[0.5,1,0],[0.75,1,0],[1,1,0],[0,0.25,0],[0,0.5,0],[0,0.75,0],[1,0.25,0],[1,0.5,0],[1,0.75,0]];outlineConnect=0;fontColor=#232F3E;gradientColor=#F78E04;gradientDirection=north;fillColor=#D05C17;strokeColor=#ffffff;dashed=0;verticalLabelPosition=bottom;verticalAlign=top;align=center;html=1;fontSize=12;fontStyle=0;aspect=fixed;shape=mxgraph.aws4.resourceIcon;resIcon=mxgraph.aws4.ec2;" parent="tDMJnzaZjNfrC3nhk8M8-79" vertex="1">
          <mxGeometry x="40" y="41" width="78" height="78" as="geometry" />
        </mxCell>
        <mxCell id="tDMJnzaZjNfrC3nhk8M8-81" value="" style="sketch=0;points=[[0,0,0],[0.25,0,0],[0.5,0,0],[0.75,0,0],[1,0,0],[0,1,0],[0.25,1,0],[0.5,1,0],[0.75,1,0],[1,1,0],[0,0.25,0],[0,0.5,0],[0,0.75,0],[1,0.25,0],[1,0.5,0],[1,0.75,0]];outlineConnect=0;fontColor=#232F3E;gradientColor=#F78E04;gradientDirection=north;fillColor=#D05C17;strokeColor=#ffffff;dashed=0;verticalLabelPosition=bottom;verticalAlign=top;align=center;html=1;fontSize=12;fontStyle=0;aspect=fixed;shape=mxgraph.aws4.resourceIcon;resIcon=mxgraph.aws4.ec2;" parent="tDMJnzaZjNfrC3nhk8M8-79" vertex="1">
          <mxGeometry x="520" y="41" width="78" height="78" as="geometry" />
        </mxCell>
        <mxCell id="tDMJnzaZjNfrC3nhk8M8-91" value="" style="edgeStyle=orthogonalEdgeStyle;html=1;endArrow=openThin;elbow=vertical;startArrow=none;endFill=0;strokeColor=#545B64;rounded=0;entryX=0.5;entryY=0;entryDx=0;entryDy=0;entryPerimeter=0;exitX=1;exitY=0.5;exitDx=0;exitDy=0;exitPerimeter=0;" parent="tDMJnzaZjNfrC3nhk8M8-59" source="tDMJnzaZjNfrC3nhk8M8-61" target="tDMJnzaZjNfrC3nhk8M8-78" edge="1">
          <mxGeometry width="100" relative="1" as="geometry">
            <mxPoint x="-380" y="170" as="sourcePoint" />
            <mxPoint x="-280" y="170" as="targetPoint" />
          </mxGeometry>
        </mxCell>
        <mxCell id="tDMJnzaZjNfrC3nhk8M8-92" value="" style="edgeStyle=orthogonalEdgeStyle;html=1;endArrow=none;elbow=vertical;startArrow=openThin;startFill=0;strokeColor=#545B64;rounded=0;entryX=0;entryY=0.5;entryDx=0;entryDy=0;entryPerimeter=0;exitX=0.5;exitY=0;exitDx=0;exitDy=0;exitPerimeter=0;" parent="tDMJnzaZjNfrC3nhk8M8-59" source="tDMJnzaZjNfrC3nhk8M8-77" target="tDMJnzaZjNfrC3nhk8M8-61" edge="1">
          <mxGeometry width="100" relative="1" as="geometry">
            <mxPoint x="-380" y="170" as="sourcePoint" />
            <mxPoint x="-280" y="170" as="targetPoint" />
          </mxGeometry>
        </mxCell>
        <mxCell id="tDMJnzaZjNfrC3nhk8M8-93" style="edgeStyle=orthogonalEdgeStyle;rounded=0;orthogonalLoop=1;jettySize=auto;html=1;" parent="tDMJnzaZjNfrC3nhk8M8-59" source="tDMJnzaZjNfrC3nhk8M8-77" target="tDMJnzaZjNfrC3nhk8M8-80" edge="1">
          <mxGeometry relative="1" as="geometry" />
        </mxCell>
        <mxCell id="tDMJnzaZjNfrC3nhk8M8-94" style="edgeStyle=orthogonalEdgeStyle;rounded=0;orthogonalLoop=1;jettySize=auto;html=1;" parent="tDMJnzaZjNfrC3nhk8M8-59" source="tDMJnzaZjNfrC3nhk8M8-78" target="tDMJnzaZjNfrC3nhk8M8-81" edge="1">
          <mxGeometry relative="1" as="geometry" />
        </mxCell>
        <mxCell id="tDMJnzaZjNfrC3nhk8M8-119" value="Aurora&lt;br&gt;Database&lt;br&gt;(AWS)" style="sketch=0;points=[[0,0,0],[0.25,0,0],[0.5,0,0],[0.75,0,0],[1,0,0],[0,1,0],[0.25,1,0],[0.5,1,0],[0.75,1,0],[1,1,0],[0,0.25,0],[0,0.5,0],[0,0.75,0],[1,0.25,0],[1,0.5,0],[1,0.75,0]];outlineConnect=0;fontColor=#232F3E;gradientColor=#4D72F3;gradientDirection=north;fillColor=#3334B9;strokeColor=#ffffff;dashed=0;verticalLabelPosition=bottom;verticalAlign=top;align=center;html=1;fontSize=12;fontStyle=0;aspect=fixed;shape=mxgraph.aws4.resourceIcon;resIcon=mxgraph.aws4.aurora;" parent="tDMJnzaZjNfrC3nhk8M8-59" vertex="1">
          <mxGeometry x="560" y="640" width="78" height="78" as="geometry" />
        </mxCell>
        <mxCell id="tDMJnzaZjNfrC3nhk8M8-122" style="edgeStyle=orthogonalEdgeStyle;rounded=0;orthogonalLoop=1;jettySize=auto;html=1;exitX=1;exitY=0.5;exitDx=0;exitDy=0;entryX=0;entryY=0.5;entryDx=0;entryDy=0;entryPerimeter=0;" parent="tDMJnzaZjNfrC3nhk8M8-59" source="tDMJnzaZjNfrC3nhk8M8-120" target="tDMJnzaZjNfrC3nhk8M8-119" edge="1">
          <mxGeometry relative="1" as="geometry" />
        </mxCell>
        <mxCell id="tDMJnzaZjNfrC3nhk8M8-120" value="Cross Availability Zone&lt;br style=&quot;border-color: var(--border-color);&quot;&gt;&amp;nbsp;linked" style="text;html=1;strokeColor=none;fillColor=none;align=center;verticalAlign=middle;whiteSpace=wrap;rounded=0;" parent="tDMJnzaZjNfrC3nhk8M8-59" vertex="1">
          <mxGeometry x="316.25" y="664" width="87.5" height="30" as="geometry" />
        </mxCell>
        <mxCell id="tDMJnzaZjNfrC3nhk8M8-124" style="edgeStyle=orthogonalEdgeStyle;rounded=0;orthogonalLoop=1;jettySize=auto;html=1;entryX=0.5;entryY=0;entryDx=0;entryDy=0;entryPerimeter=0;" parent="tDMJnzaZjNfrC3nhk8M8-59" source="tDMJnzaZjNfrC3nhk8M8-81" target="tDMJnzaZjNfrC3nhk8M8-119" edge="1">
          <mxGeometry relative="1" as="geometry" />
        </mxCell>
        <mxCell id="tDMJnzaZjNfrC3nhk8M8-153" value="&lt;b&gt;MULTI AZ&lt;/b&gt;" style="sketch=0;outlineConnect=0;fontColor=#232F3E;gradientColor=none;fillColor=#2E27AD;strokeColor=none;dashed=0;verticalLabelPosition=bottom;verticalAlign=top;align=center;html=1;fontSize=12;fontStyle=0;aspect=fixed;pointerEvents=1;shape=mxgraph.aws4.rds_multi_az_db_cluster;" parent="tDMJnzaZjNfrC3nhk8M8-59" vertex="1">
          <mxGeometry x="321" y="550" width="78" height="78" as="geometry" />
        </mxCell>
        <mxCell id="tDMJnzaZjNfrC3nhk8M8-118" value="Aurora&lt;br&gt;Database&lt;br&gt;(AWS)" style="sketch=0;points=[[0,0,0],[0.25,0,0],[0.5,0,0],[0.75,0,0],[1,0,0],[0,1,0],[0.25,1,0],[0.5,1,0],[0.75,1,0],[1,1,0],[0,0.25,0],[0,0.5,0],[0,0.75,0],[1,0.25,0],[1,0.5,0],[1,0.75,0]];outlineConnect=0;fontColor=#232F3E;gradientColor=#4D72F3;gradientDirection=north;fillColor=#3334B9;strokeColor=#ffffff;dashed=0;verticalLabelPosition=bottom;verticalAlign=top;align=center;html=1;fontSize=12;fontStyle=0;aspect=fixed;shape=mxgraph.aws4.resourceIcon;resIcon=mxgraph.aws4.aurora;" parent="tDMJnzaZjNfrC3nhk8M8-52" vertex="1">
          <mxGeometry x="160" y="720" width="78" height="78" as="geometry" />
        </mxCell>
        <mxCell id="tDMJnzaZjNfrC3nhk8M8-121" style="edgeStyle=orthogonalEdgeStyle;rounded=0;orthogonalLoop=1;jettySize=auto;html=1;" parent="tDMJnzaZjNfrC3nhk8M8-52" source="tDMJnzaZjNfrC3nhk8M8-120" target="tDMJnzaZjNfrC3nhk8M8-118" edge="1">
          <mxGeometry relative="1" as="geometry" />
        </mxCell>
        <mxCell id="tDMJnzaZjNfrC3nhk8M8-123" style="edgeStyle=orthogonalEdgeStyle;rounded=0;orthogonalLoop=1;jettySize=auto;html=1;entryX=0.5;entryY=0;entryDx=0;entryDy=0;entryPerimeter=0;" parent="tDMJnzaZjNfrC3nhk8M8-52" source="tDMJnzaZjNfrC3nhk8M8-80" target="tDMJnzaZjNfrC3nhk8M8-118" edge="1">
          <mxGeometry relative="1" as="geometry" />
        </mxCell>
        <mxCell id="tDMJnzaZjNfrC3nhk8M8-53" value="Region" style="points=[[0,0],[0.25,0],[0.5,0],[0.75,0],[1,0],[1,0.25],[1,0.5],[1,0.75],[1,1],[0.75,1],[0.5,1],[0.25,1],[0,1],[0,0.75],[0,0.5],[0,0.25]];outlineConnect=0;gradientColor=none;html=1;whiteSpace=wrap;fontSize=12;fontStyle=0;container=1;pointerEvents=0;collapsible=0;recursiveResize=0;shape=mxgraph.aws4.group;grIcon=mxgraph.aws4.group_region;strokeColor=#147EBA;fillColor=none;verticalAlign=top;align=left;spacingLeft=30;fontColor=#147EBA;dashed=1;" parent="tDMJnzaZjNfrC3nhk8M8-51" vertex="1">
          <mxGeometry x="40" y="40" width="880" height="960" as="geometry" />
        </mxCell>
        <mxCell id="tDMJnzaZjNfrC3nhk8M8-54" value="Availability Zone" style="fillColor=none;strokeColor=#147EBA;dashed=1;verticalAlign=top;fontStyle=0;fontColor=#147EBA;whiteSpace=wrap;html=1;" parent="tDMJnzaZjNfrC3nhk8M8-53" vertex="1">
          <mxGeometry x="40" y="40" width="360" height="880" as="geometry" />
        </mxCell>
        <mxCell id="tDMJnzaZjNfrC3nhk8M8-55" value="Availability Zone" style="fillColor=none;strokeColor=#147EBA;dashed=1;verticalAlign=top;fontStyle=0;fontColor=#147EBA;whiteSpace=wrap;html=1;" parent="tDMJnzaZjNfrC3nhk8M8-53" vertex="1">
          <mxGeometry x="480" y="40" width="360" height="880" as="geometry" />
        </mxCell>
        <mxCell id="tDMJnzaZjNfrC3nhk8M8-58" value="VPC" style="points=[[0,0],[0.25,0],[0.5,0],[0.75,0],[1,0],[1,0.25],[1,0.5],[1,0.75],[1,1],[0.75,1],[0.5,1],[0.25,1],[0,1],[0,0.75],[0,0.5],[0,0.25]];outlineConnect=0;gradientColor=none;html=1;whiteSpace=wrap;fontSize=12;fontStyle=0;container=1;pointerEvents=0;collapsible=0;recursiveResize=0;shape=mxgraph.aws4.group;grIcon=mxgraph.aws4.group_vpc;strokeColor=#248814;fillColor=none;verticalAlign=top;align=left;spacingLeft=30;fontColor=#AAB7B8;dashed=0;" parent="tDMJnzaZjNfrC3nhk8M8-53" vertex="1">
          <mxGeometry x="80" y="80" width="720" height="800" as="geometry" />
        </mxCell>
        <mxCell id="tDMJnzaZjNfrC3nhk8M8-60" value="elastic loadbalancer" style="sketch=0;points=[[0,0,0],[0.25,0,0],[0.5,0,0],[0.75,0,0],[1,0,0],[0,1,0],[0.25,1,0],[0.5,1,0],[0.75,1,0],[1,1,0],[0,0.25,0],[0,0.5,0],[0,0.75,0],[1,0.25,0],[1,0.5,0],[1,0.75,0]];outlineConnect=0;fontColor=#232F3E;gradientColor=#945DF2;gradientDirection=north;fillColor=#5A30B5;strokeColor=#ffffff;dashed=0;verticalLabelPosition=bottom;verticalAlign=top;align=center;html=1;fontSize=12;fontStyle=0;aspect=fixed;shape=mxgraph.aws4.resourceIcon;resIcon=mxgraph.aws4.elastic_load_balancing;" parent="tDMJnzaZjNfrC3nhk8M8-58" vertex="1">
          <mxGeometry x="332.5" y="-10" width="55" height="55" as="geometry" />
        </mxCell>
        <mxCell id="tDMJnzaZjNfrC3nhk8M8-67" value="Auto Scaling group" style="points=[[0,0],[0.25,0],[0.5,0],[0.75,0],[1,0],[1,0.25],[1,0.5],[1,0.75],[1,1],[0.75,1],[0.5,1],[0.25,1],[0,1],[0,0.75],[0,0.5],[0,0.25]];outlineConnect=0;gradientColor=none;html=1;whiteSpace=wrap;fontSize=12;fontStyle=0;container=1;pointerEvents=0;collapsible=0;recursiveResize=0;shape=mxgraph.aws4.groupCenter;grIcon=mxgraph.aws4.group_auto_scaling_group;grStroke=1;strokeColor=#D86613;fillColor=none;verticalAlign=top;align=center;fontColor=#D86613;dashed=1;spacingTop=25;" parent="tDMJnzaZjNfrC3nhk8M8-58" vertex="1">
          <mxGeometry x="40" y="360" width="640" height="160" as="geometry" />
        </mxCell>
        <mxCell id="tDMJnzaZjNfrC3nhk8M8-74" value="" style="sketch=0;points=[[0,0,0],[0.25,0,0],[0.5,0,0],[0.75,0,0],[1,0,0],[0,1,0],[0.25,1,0],[0.5,1,0],[0.75,1,0],[1,1,0],[0,0.25,0],[0,0.5,0],[0,0.75,0],[1,0.25,0],[1,0.5,0],[1,0.75,0]];outlineConnect=0;fontColor=#232F3E;gradientColor=#F78E04;gradientDirection=north;fillColor=#D05C17;strokeColor=#ffffff;dashed=0;verticalLabelPosition=bottom;verticalAlign=top;align=center;html=1;fontSize=12;fontStyle=0;aspect=fixed;shape=mxgraph.aws4.resourceIcon;resIcon=mxgraph.aws4.ec2;" parent="tDMJnzaZjNfrC3nhk8M8-67" vertex="1">
          <mxGeometry x="40" y="41" width="78" height="78" as="geometry" />
        </mxCell>
        <mxCell id="tDMJnzaZjNfrC3nhk8M8-75" value="" style="sketch=0;points=[[0,0,0],[0.25,0,0],[0.5,0,0],[0.75,0,0],[1,0,0],[0,1,0],[0.25,1,0],[0.5,1,0],[0.75,1,0],[1,1,0],[0,0.25,0],[0,0.5,0],[0,0.75,0],[1,0.25,0],[1,0.5,0],[1,0.75,0]];outlineConnect=0;fontColor=#232F3E;gradientColor=#F78E04;gradientDirection=north;fillColor=#D05C17;strokeColor=#ffffff;dashed=0;verticalLabelPosition=bottom;verticalAlign=top;align=center;html=1;fontSize=12;fontStyle=0;aspect=fixed;shape=mxgraph.aws4.resourceIcon;resIcon=mxgraph.aws4.ec2;" parent="tDMJnzaZjNfrC3nhk8M8-67" vertex="1">
          <mxGeometry x="520" y="41" width="78" height="78" as="geometry" />
        </mxCell>
        <mxCell id="tDMJnzaZjNfrC3nhk8M8-95" value="Aurora&lt;br&gt;Database&lt;br&gt;(AWS)" style="sketch=0;points=[[0,0,0],[0.25,0,0],[0.5,0,0],[0.75,0,0],[1,0,0],[0,1,0],[0.25,1,0],[0.5,1,0],[0.75,1,0],[1,1,0],[0,0.25,0],[0,0.5,0],[0,0.75,0],[1,0.25,0],[1,0.5,0],[1,0.75,0]];outlineConnect=0;fontColor=#232F3E;gradientColor=#4D72F3;gradientDirection=north;fillColor=#3334B9;strokeColor=#ffffff;dashed=0;verticalLabelPosition=bottom;verticalAlign=top;align=center;html=1;fontSize=12;fontStyle=0;aspect=fixed;shape=mxgraph.aws4.resourceIcon;resIcon=mxgraph.aws4.aurora;" parent="tDMJnzaZjNfrC3nhk8M8-58" vertex="1">
          <mxGeometry x="560" y="640" width="78" height="78" as="geometry" />
        </mxCell>
        <mxCell id="tDMJnzaZjNfrC3nhk8M8-114" style="edgeStyle=orthogonalEdgeStyle;rounded=0;orthogonalLoop=1;jettySize=auto;html=1;" parent="tDMJnzaZjNfrC3nhk8M8-58" source="tDMJnzaZjNfrC3nhk8M8-75" target="tDMJnzaZjNfrC3nhk8M8-95" edge="1">
          <mxGeometry relative="1" as="geometry" />
        </mxCell>
        <mxCell id="tDMJnzaZjNfrC3nhk8M8-112" value="&lt;span style=&quot;color: rgb(35, 47, 62); font-family: Helvetica; font-size: 12px; font-style: normal; font-variant-ligatures: normal; font-variant-caps: normal; font-weight: 400; letter-spacing: normal; orphans: 2; text-align: center; text-indent: 0px; text-transform: none; widows: 2; word-spacing: 0px; -webkit-text-stroke-width: 0px; background-color: rgb(251, 251, 251); text-decoration-thickness: initial; text-decoration-style: initial; text-decoration-color: initial; float: none; display: inline !important;&quot;&gt;Aurora&lt;/span&gt;&lt;br style=&quot;border-color: var(--border-color); color: rgb(35, 47, 62); font-family: Helvetica; font-size: 12px; font-style: normal; font-variant-ligatures: normal; font-variant-caps: normal; font-weight: 400; letter-spacing: normal; orphans: 2; text-align: center; text-indent: 0px; text-transform: none; widows: 2; word-spacing: 0px; -webkit-text-stroke-width: 0px; background-color: rgb(251, 251, 251); text-decoration-thickness: initial; text-decoration-style: initial; text-decoration-color: initial;&quot;&gt;&lt;span style=&quot;color: rgb(35, 47, 62); font-family: Helvetica; font-size: 12px; font-style: normal; font-variant-ligatures: normal; font-variant-caps: normal; font-weight: 400; letter-spacing: normal; orphans: 2; text-align: center; text-indent: 0px; text-transform: none; widows: 2; word-spacing: 0px; -webkit-text-stroke-width: 0px; background-color: rgb(251, 251, 251); text-decoration-thickness: initial; text-decoration-style: initial; text-decoration-color: initial; float: none; display: inline !important;&quot;&gt;Database&lt;/span&gt;&lt;br style=&quot;border-color: var(--border-color); color: rgb(35, 47, 62); font-family: Helvetica; font-size: 12px; font-style: normal; font-variant-ligatures: normal; font-variant-caps: normal; font-weight: 400; letter-spacing: normal; orphans: 2; text-align: center; text-indent: 0px; text-transform: none; widows: 2; word-spacing: 0px; -webkit-text-stroke-width: 0px; background-color: rgb(251, 251, 251); text-decoration-thickness: initial; text-decoration-style: initial; text-decoration-color: initial;&quot;&gt;&lt;span style=&quot;color: rgb(35, 47, 62); font-family: Helvetica; font-size: 12px; font-style: normal; font-variant-ligatures: normal; font-variant-caps: normal; font-weight: 400; letter-spacing: normal; orphans: 2; text-align: center; text-indent: 0px; text-transform: none; widows: 2; word-spacing: 0px; -webkit-text-stroke-width: 0px; background-color: rgb(251, 251, 251); text-decoration-thickness: initial; text-decoration-style: initial; text-decoration-color: initial; float: none; display: inline !important;&quot;&gt;(AWS)&lt;/span&gt;" style="sketch=0;points=[[0,0,0],[0.25,0,0],[0.5,0,0],[0.75,0,0],[1,0,0],[0,1,0],[0.25,1,0],[0.5,1,0],[0.75,1,0],[1,1,0],[0,0.25,0],[0,0.5,0],[0,0.75,0],[1,0.25,0],[1,0.5,0],[1,0.75,0]];outlineConnect=0;fontColor=#232F3E;gradientColor=#4D72F3;gradientDirection=north;fillColor=#3334B9;strokeColor=#ffffff;dashed=0;verticalLabelPosition=bottom;verticalAlign=top;align=center;html=1;fontSize=12;fontStyle=0;aspect=fixed;shape=mxgraph.aws4.resourceIcon;resIcon=mxgraph.aws4.aurora;" parent="tDMJnzaZjNfrC3nhk8M8-58" vertex="1">
          <mxGeometry x="80" y="640" width="78" height="78" as="geometry" />
        </mxCell>
        <mxCell id="tDMJnzaZjNfrC3nhk8M8-113" style="edgeStyle=orthogonalEdgeStyle;rounded=0;orthogonalLoop=1;jettySize=auto;html=1;entryX=0.5;entryY=0;entryDx=0;entryDy=0;entryPerimeter=0;" parent="tDMJnzaZjNfrC3nhk8M8-58" source="tDMJnzaZjNfrC3nhk8M8-74" target="tDMJnzaZjNfrC3nhk8M8-112" edge="1">
          <mxGeometry relative="1" as="geometry" />
        </mxCell>
        <mxCell id="tDMJnzaZjNfrC3nhk8M8-116" style="edgeStyle=orthogonalEdgeStyle;rounded=0;orthogonalLoop=1;jettySize=auto;html=1;" parent="tDMJnzaZjNfrC3nhk8M8-58" source="tDMJnzaZjNfrC3nhk8M8-115" target="tDMJnzaZjNfrC3nhk8M8-112" edge="1">
          <mxGeometry relative="1" as="geometry" />
        </mxCell>
        <mxCell id="tDMJnzaZjNfrC3nhk8M8-117" style="edgeStyle=orthogonalEdgeStyle;rounded=0;orthogonalLoop=1;jettySize=auto;html=1;entryX=0;entryY=0.5;entryDx=0;entryDy=0;entryPerimeter=0;" parent="tDMJnzaZjNfrC3nhk8M8-58" source="tDMJnzaZjNfrC3nhk8M8-115" target="tDMJnzaZjNfrC3nhk8M8-95" edge="1">
          <mxGeometry relative="1" as="geometry" />
        </mxCell>
        <mxCell id="tDMJnzaZjNfrC3nhk8M8-115" value="Cross Availability Zone&lt;br&gt;&amp;nbsp;linked" style="text;html=1;strokeColor=none;fillColor=none;align=center;verticalAlign=middle;whiteSpace=wrap;rounded=0;" parent="tDMJnzaZjNfrC3nhk8M8-58" vertex="1">
          <mxGeometry x="316.25" y="664" width="87.5" height="30" as="geometry" />
        </mxCell>
        <mxCell id="tDMJnzaZjNfrC3nhk8M8-151" value="&lt;b&gt;MULTI AZ&lt;/b&gt;" style="sketch=0;outlineConnect=0;fontColor=#232F3E;gradientColor=none;fillColor=#2E27AD;strokeColor=none;dashed=0;verticalLabelPosition=bottom;verticalAlign=top;align=center;html=1;fontSize=12;fontStyle=0;aspect=fixed;pointerEvents=1;shape=mxgraph.aws4.rds_multi_az_db_cluster;" parent="tDMJnzaZjNfrC3nhk8M8-58" vertex="1">
          <mxGeometry x="321" y="550" width="78" height="78" as="geometry" />
        </mxCell>
        <mxCell id="tDMJnzaZjNfrC3nhk8M8-62" value="Auto Scaling group" style="points=[[0,0],[0.25,0],[0.5,0],[0.75,0],[1,0],[1,0.25],[1,0.5],[1,0.75],[1,1],[0.75,1],[0.5,1],[0.25,1],[0,1],[0,0.75],[0,0.5],[0,0.25]];outlineConnect=0;gradientColor=none;html=1;whiteSpace=wrap;fontSize=12;fontStyle=0;container=1;pointerEvents=0;collapsible=0;recursiveResize=0;shape=mxgraph.aws4.groupCenter;grIcon=mxgraph.aws4.group_auto_scaling_group;grStroke=1;strokeColor=#D86613;fillColor=none;verticalAlign=top;align=center;fontColor=#D86613;dashed=1;spacingTop=25;" parent="tDMJnzaZjNfrC3nhk8M8-53" vertex="1">
          <mxGeometry x="120" y="160" width="640" height="160" as="geometry" />
        </mxCell>
        <mxCell id="tDMJnzaZjNfrC3nhk8M8-71" value="" style="sketch=0;points=[[0,0,0],[0.25,0,0],[0.5,0,0],[0.75,0,0],[1,0,0],[0,1,0],[0.25,1,0],[0.5,1,0],[0.75,1,0],[1,1,0],[0,0.25,0],[0,0.5,0],[0,0.75,0],[1,0.25,0],[1,0.5,0],[1,0.75,0]];outlineConnect=0;fontColor=#232F3E;gradientColor=#F78E04;gradientDirection=north;fillColor=#D05C17;strokeColor=#ffffff;dashed=0;verticalLabelPosition=bottom;verticalAlign=top;align=center;html=1;fontSize=12;fontStyle=0;aspect=fixed;shape=mxgraph.aws4.resourceIcon;resIcon=mxgraph.aws4.ec2;" parent="tDMJnzaZjNfrC3nhk8M8-62" vertex="1">
          <mxGeometry x="520" y="41" width="78" height="78" as="geometry" />
        </mxCell>
        <mxCell id="tDMJnzaZjNfrC3nhk8M8-82" style="edgeStyle=orthogonalEdgeStyle;rounded=0;orthogonalLoop=1;jettySize=auto;html=1;" parent="tDMJnzaZjNfrC3nhk8M8-53" source="tDMJnzaZjNfrC3nhk8M8-70" target="tDMJnzaZjNfrC3nhk8M8-74" edge="1">
          <mxGeometry relative="1" as="geometry" />
        </mxCell>
        <mxCell id="tDMJnzaZjNfrC3nhk8M8-70" value="" style="sketch=0;points=[[0,0,0],[0.25,0,0],[0.5,0,0],[0.75,0,0],[1,0,0],[0,1,0],[0.25,1,0],[0.5,1,0],[0.75,1,0],[1,1,0],[0,0.25,0],[0,0.5,0],[0,0.75,0],[1,0.25,0],[1,0.5,0],[1,0.75,0]];outlineConnect=0;fontColor=#232F3E;gradientColor=#F78E04;gradientDirection=north;fillColor=#D05C17;strokeColor=#ffffff;dashed=0;verticalLabelPosition=bottom;verticalAlign=top;align=center;html=1;fontSize=12;fontStyle=0;aspect=fixed;shape=mxgraph.aws4.resourceIcon;resIcon=mxgraph.aws4.ec2;" parent="tDMJnzaZjNfrC3nhk8M8-53" vertex="1">
          <mxGeometry x="160" y="201" width="79" height="79" as="geometry" />
        </mxCell>
        <mxCell id="tDMJnzaZjNfrC3nhk8M8-83" style="edgeStyle=orthogonalEdgeStyle;rounded=0;orthogonalLoop=1;jettySize=auto;html=1;entryX=0.5;entryY=0;entryDx=0;entryDy=0;entryPerimeter=0;" parent="tDMJnzaZjNfrC3nhk8M8-53" source="tDMJnzaZjNfrC3nhk8M8-71" target="tDMJnzaZjNfrC3nhk8M8-75" edge="1">
          <mxGeometry relative="1" as="geometry" />
        </mxCell>
        <mxCell id="tDMJnzaZjNfrC3nhk8M8-88" value="" style="edgeStyle=orthogonalEdgeStyle;html=1;endArrow=none;elbow=vertical;startArrow=openThin;startFill=0;strokeColor=#545B64;rounded=0;entryX=0;entryY=0.5;entryDx=0;entryDy=0;entryPerimeter=0;exitX=0.5;exitY=0;exitDx=0;exitDy=0;exitPerimeter=0;" parent="tDMJnzaZjNfrC3nhk8M8-53" source="tDMJnzaZjNfrC3nhk8M8-70" target="tDMJnzaZjNfrC3nhk8M8-60" edge="1">
          <mxGeometry width="100" relative="1" as="geometry">
            <mxPoint x="180" y="140" as="sourcePoint" />
            <mxPoint x="280" y="140" as="targetPoint" />
          </mxGeometry>
        </mxCell>
        <mxCell id="tDMJnzaZjNfrC3nhk8M8-89" value="" style="edgeStyle=orthogonalEdgeStyle;html=1;endArrow=openThin;elbow=vertical;startArrow=none;endFill=0;strokeColor=#545B64;rounded=0;entryX=0.5;entryY=0;entryDx=0;entryDy=0;entryPerimeter=0;exitX=1;exitY=0.5;exitDx=0;exitDy=0;exitPerimeter=0;" parent="tDMJnzaZjNfrC3nhk8M8-53" source="tDMJnzaZjNfrC3nhk8M8-60" target="tDMJnzaZjNfrC3nhk8M8-71" edge="1">
          <mxGeometry width="100" relative="1" as="geometry">
            <mxPoint x="660" y="250" as="sourcePoint" />
            <mxPoint x="760" y="250" as="targetPoint" />
          </mxGeometry>
        </mxCell>
        <mxCell id="tDMJnzaZjNfrC3nhk8M8-125" value="Aurora Global Databases" style="text;html=1;strokeColor=none;fillColor=none;align=center;verticalAlign=middle;whiteSpace=wrap;rounded=0;" parent="tDMJnzaZjNfrC3nhk8M8-51" vertex="1">
          <mxGeometry x="916.25" y="1030" width="87.5" height="30" as="geometry" />
        </mxCell>
        <mxCell id="tDMJnzaZjNfrC3nhk8M8-127" style="edgeStyle=orthogonalEdgeStyle;rounded=0;orthogonalLoop=1;jettySize=auto;html=1;entryX=0;entryY=0.5;entryDx=0;entryDy=0;" parent="tDMJnzaZjNfrC3nhk8M8-51" source="tDMJnzaZjNfrC3nhk8M8-95" target="tDMJnzaZjNfrC3nhk8M8-125" edge="1">
          <mxGeometry relative="1" as="geometry">
            <Array as="points">
              <mxPoint x="719" y="1045" />
            </Array>
          </mxGeometry>
        </mxCell>
        <mxCell id="tDMJnzaZjNfrC3nhk8M8-128" style="edgeStyle=orthogonalEdgeStyle;rounded=0;orthogonalLoop=1;jettySize=auto;html=1;entryX=1;entryY=0.5;entryDx=0;entryDy=0;" parent="tDMJnzaZjNfrC3nhk8M8-51" source="tDMJnzaZjNfrC3nhk8M8-118" target="tDMJnzaZjNfrC3nhk8M8-125" edge="1">
          <mxGeometry relative="1" as="geometry">
            <Array as="points">
              <mxPoint x="1200" y="1045" />
            </Array>
          </mxGeometry>
        </mxCell>
        <mxCell id="ygFI6h6UYboC4I87mAU2-2" value="&lt;h1&gt;Cross Region Backup&lt;/h1&gt;&lt;p&gt;Using Aurora Global Database to make a Cross Region Backup of the Database possible.&amp;nbsp;&lt;/p&gt;" style="text;html=1;strokeColor=none;fillColor=none;spacing=5;spacingTop=-20;whiteSpace=wrap;overflow=hidden;rounded=0;" vertex="1" parent="tDMJnzaZjNfrC3nhk8M8-51">
          <mxGeometry x="1214" y="1050" width="266" height="90" as="geometry" />
        </mxCell>
        <mxCell id="ygFI6h6UYboC4I87mAU2-5" value="Cross Region Replication&lt;br&gt;S3 Buckets" style="sketch=0;outlineConnect=0;fontColor=#232F3E;gradientColor=none;fillColor=#3F8624;strokeColor=none;dashed=0;verticalLabelPosition=bottom;verticalAlign=top;align=center;html=1;fontSize=12;fontStyle=0;aspect=fixed;pointerEvents=1;shape=mxgraph.aws4.replication;" vertex="1" parent="tDMJnzaZjNfrC3nhk8M8-51">
          <mxGeometry x="922" y="1280" width="76" height="78" as="geometry" />
        </mxCell>
        <mxCell id="ygFI6h6UYboC4I87mAU2-9" style="edgeStyle=orthogonalEdgeStyle;rounded=0;orthogonalLoop=1;jettySize=auto;html=1;" edge="1" parent="tDMJnzaZjNfrC3nhk8M8-51" source="tDMJnzaZjNfrC3nhk8M8-95" target="ygFI6h6UYboC4I87mAU2-5">
          <mxGeometry relative="1" as="geometry">
            <Array as="points">
              <mxPoint x="719" y="1320" />
            </Array>
          </mxGeometry>
        </mxCell>
        <mxCell id="ygFI6h6UYboC4I87mAU2-11" style="edgeStyle=orthogonalEdgeStyle;rounded=0;orthogonalLoop=1;jettySize=auto;html=1;" edge="1" parent="tDMJnzaZjNfrC3nhk8M8-51" source="tDMJnzaZjNfrC3nhk8M8-118" target="ygFI6h6UYboC4I87mAU2-5">
          <mxGeometry relative="1" as="geometry">
            <Array as="points">
              <mxPoint x="1200" y="1320" />
            </Array>
          </mxGeometry>
        </mxCell>
        <mxCell id="ygFI6h6UYboC4I87mAU2-12" value="Region" style="points=[[0,0],[0.25,0],[0.5,0],[0.75,0],[1,0],[1,0.25],[1,0.5],[1,0.75],[1,1],[0.75,1],[0.5,1],[0.25,1],[0,1],[0,0.75],[0,0.5],[0,0.25]];outlineConnect=0;gradientColor=none;html=1;whiteSpace=wrap;fontSize=12;fontStyle=0;container=1;pointerEvents=0;collapsible=0;recursiveResize=0;shape=mxgraph.aws4.group;grIcon=mxgraph.aws4.group_region;strokeColor=#147EBA;fillColor=none;verticalAlign=top;align=left;spacingLeft=30;fontColor=#147EBA;dashed=1;" vertex="1" parent="tDMJnzaZjNfrC3nhk8M8-51">
          <mxGeometry x="720" y="1358" width="160" height="202" as="geometry" />
        </mxCell>
        <mxCell id="ygFI6h6UYboC4I87mAU2-14" value="Backup Replica&lt;br&gt;Region A&lt;br&gt;S3 Bucket" style="sketch=0;outlineConnect=0;fontColor=#232F3E;gradientColor=none;fillColor=#3F8624;strokeColor=none;dashed=0;verticalLabelPosition=bottom;verticalAlign=top;align=center;html=1;fontSize=12;fontStyle=0;aspect=fixed;pointerEvents=1;shape=mxgraph.aws4.backup_aws_backup_support_for_amazon_s3;" vertex="1" parent="ygFI6h6UYboC4I87mAU2-12">
          <mxGeometry x="41" y="72" width="78" height="78" as="geometry" />
        </mxCell>
        <mxCell id="ygFI6h6UYboC4I87mAU2-13" value="Region" style="points=[[0,0],[0.25,0],[0.5,0],[0.75,0],[1,0],[1,0.25],[1,0.5],[1,0.75],[1,1],[0.75,1],[0.5,1],[0.25,1],[0,1],[0,0.75],[0,0.5],[0,0.25]];outlineConnect=0;gradientColor=none;html=1;whiteSpace=wrap;fontSize=12;fontStyle=0;container=1;pointerEvents=0;collapsible=0;recursiveResize=0;shape=mxgraph.aws4.group;grIcon=mxgraph.aws4.group_region;strokeColor=#147EBA;fillColor=none;verticalAlign=top;align=left;spacingLeft=30;fontColor=#147EBA;dashed=1;" vertex="1" parent="tDMJnzaZjNfrC3nhk8M8-51">
          <mxGeometry x="1040" y="1358" width="160" height="202" as="geometry" />
        </mxCell>
        <mxCell id="ygFI6h6UYboC4I87mAU2-15" value="Backup Replica&lt;br&gt;Region A&lt;br&gt;S3 Bucket" style="sketch=0;outlineConnect=0;fontColor=#232F3E;gradientColor=none;fillColor=#3F8624;strokeColor=none;dashed=0;verticalLabelPosition=bottom;verticalAlign=top;align=center;html=1;fontSize=12;fontStyle=0;aspect=fixed;pointerEvents=1;shape=mxgraph.aws4.backup_aws_backup_support_for_amazon_s3;" vertex="1" parent="ygFI6h6UYboC4I87mAU2-13">
          <mxGeometry x="40" y="72" width="78" height="78" as="geometry" />
        </mxCell>
        <mxCell id="ygFI6h6UYboC4I87mAU2-18" value="" style="endArrow=classic;startArrow=classic;html=1;rounded=0;" edge="1" parent="tDMJnzaZjNfrC3nhk8M8-51" source="ygFI6h6UYboC4I87mAU2-14" target="ygFI6h6UYboC4I87mAU2-15">
          <mxGeometry width="50" height="50" relative="1" as="geometry">
            <mxPoint x="830" y="1360" as="sourcePoint" />
            <mxPoint x="880" y="1310" as="targetPoint" />
          </mxGeometry>
        </mxCell>
        <mxCell id="tDMJnzaZjNfrC3nhk8M8-142" value="Backup Aurora&lt;br&gt;Database&lt;br&gt;via Aurora Global Database" style="sketch=0;points=[[0,0,0],[0.25,0,0],[0.5,0,0],[0.75,0,0],[1,0,0],[0,1,0],[0.25,1,0],[0.5,1,0],[0.75,1,0],[1,1,0],[0,0.25,0],[0,0.5,0],[0,0.75,0],[1,0.25,0],[1,0.5,0],[1,0.75,0]];outlineConnect=0;fontColor=#232F3E;gradientColor=#4D72F3;gradientDirection=north;fillColor=#3334B9;strokeColor=#ffffff;dashed=0;verticalLabelPosition=bottom;verticalAlign=top;align=center;html=1;fontSize=12;fontStyle=0;aspect=fixed;shape=mxgraph.aws4.resourceIcon;resIcon=mxgraph.aws4.aurora;" parent="tDMJnzaZjNfrC3nhk8M8-51" vertex="1">
          <mxGeometry x="925.75" y="761" width="78" height="78" as="geometry" />
        </mxCell>
        <mxCell id="tDMJnzaZjNfrC3nhk8M8-144" style="edgeStyle=orthogonalEdgeStyle;rounded=0;orthogonalLoop=1;jettySize=auto;html=1;entryX=1;entryY=0.5;entryDx=0;entryDy=0;entryPerimeter=0;" parent="tDMJnzaZjNfrC3nhk8M8-51" source="tDMJnzaZjNfrC3nhk8M8-118" target="tDMJnzaZjNfrC3nhk8M8-142" edge="1">
          <mxGeometry relative="1" as="geometry">
            <Array as="points">
              <mxPoint x="1220" y="800" />
              <mxPoint x="1220" y="800" />
            </Array>
          </mxGeometry>
        </mxCell>
        <mxCell id="tDMJnzaZjNfrC3nhk8M8-149" style="edgeStyle=orthogonalEdgeStyle;rounded=0;orthogonalLoop=1;jettySize=auto;html=1;entryX=0;entryY=0.5;entryDx=0;entryDy=0;entryPerimeter=0;" parent="tDMJnzaZjNfrC3nhk8M8-51" source="tDMJnzaZjNfrC3nhk8M8-95" target="tDMJnzaZjNfrC3nhk8M8-142" edge="1">
          <mxGeometry relative="1" as="geometry">
            <mxPoint x="780" y="590" as="targetPoint" />
            <Array as="points">
              <mxPoint x="750" y="800" />
              <mxPoint x="750" y="800" />
            </Array>
          </mxGeometry>
        </mxCell>
      </root>
    </mxGraphModel>
  </diagram>
</mxfile>
